<?xml version="1.0" standalone="no"?>
<!DOCTYPE svg PUBLIC "-//W3C//DTD SVG 20010904//EN"
 "http://www.w3.org/TR/2001/REC-SVG-20010904/DTD/svg10.dtd">
<svg version="1.0" xmlns="http://www.w3.org/2000/svg"
 width="82.000000pt" height="82.000000pt" viewBox="0 0 82.000000 82.000000"
 preserveAspectRatio="xMidYMid meet">
<metadata>
Created by potrace 1.11, written by Peter Selinger 2001-2013
</metadata>
<g transform="translate(0.000000,82.000000) scale(0.100000,-0.100000)"
fill="#000000" stroke="none">
<path d="M289 708 c-13 -5 -50 -36 -82 -69 -31 -32 -63 -59 -69 -59 -6 0 -9
-2 -6 -5 3 -3 -21 -33 -53 -66 -33 -33 -60 -66 -60 -74 -1 -8 -2 -21 -3 -27
-3 -26 24 -61 130 -169 116 -117 145 -139 182 -133 30 5 92 47 116 79 10 14
25 25 33 25 8 0 12 4 9 9 -8 12 15 29 48 35 16 3 31 8 35 11 3 3 -7 4 -22 1
-15 -2 -27 0 -27 5 0 5 7 9 15 9 8 0 15 5 15 11 0 5 5 7 12 3 8 -5 9 -2 5 9
-4 11 -1 17 7 17 7 0 19 11 26 25 7 13 16 23 19 20 9 -5 8 57 0 70 -4 6 -5 20
-4 32 1 12 -2 20 -7 17 -4 -3 -21 8 -37 25 -16 16 -31 27 -34 25 -3 -3 -11 8
-18 25 -9 20 -16 26 -21 18 -6 -9 -8 -9 -8 0 0 6 -16 28 -35 47 -19 20 -35 34
-35 32 0 -3 -14 8 -31 24 -36 32 -65 40 -100 28z"/>
<path d="M469 683 c-13 -16 -12 -17 4 -4 9 7 17 15 17 17 0 8 -8 3 -21 -13z"/>
<path d="M491 667 c-8 -10 -7 -14 2 -14 8 0 14 6 14 14 0 7 -1 13 -2 13 -2 0
-8 -6 -14 -13z"/>
<path d="M489 623 c-13 -16 -12 -17 4 -4 16 13 21 21 13 21 -2 0 -10 -8 -17
-17z"/>
<path d="M590 626 c0 -2 7 -7 16 -10 8 -3 12 -2 9 4 -6 10 -25 14 -25 6z"/>
<path d="M634 566 c1 -8 5 -18 8 -22 4 -3 5 1 4 10 -1 8 -5 18 -8 22 -4 3 -5
-1 -4 -10z"/>
<path d="M660 566 c0 -2 8 -10 18 -17 15 -13 16 -12 3 4 -13 16 -21 21 -21 13z"/>
<path d="M679 513 c-13 -16 -12 -17 4 -4 16 13 21 21 13 21 -2 0 -10 -8 -17
-17z"/>
<path d="M633 493 c0 -9 4 -10 14 -2 7 6 13 12 13 14 0 1 -6 2 -13 2 -8 0 -14
-6 -14 -14z"/>
<path d="M710 461 c0 -5 8 -15 18 -22 15 -12 16 -12 5 2 -7 9 -10 19 -6 22 3
4 1 7 -5 7 -7 0 -12 -4 -12 -9z"/>
<path d="M713 423 c4 -3 1 -13 -6 -22 -11 -14 -10 -14 5 -2 16 12 16 31 1 31
-4 0 -3 -3 0 -7z"/>
<path d="M770 379 c0 -5 5 -7 10 -4 6 3 10 8 10 11 0 2 -4 4 -10 4 -5 0 -10
-5 -10 -11z"/>
<path d="M700 366 c0 -2 8 -10 18 -17 15 -13 16 -12 3 4 -13 16 -21 21 -21 13z"/>
<path d="M680 346 c0 -2 8 -10 18 -17 15 -13 16 -12 3 4 -13 16 -21 21 -21 13z"/>
<path d="M659 293 c-13 -17 -13 -17 6 -3 11 8 22 16 24 17 2 2 0 3 -6 3 -6 0
-17 -8 -24 -17z"/>
<path d="M515 200 c3 -13 -1 -31 -8 -39 -11 -14 -10 -14 5 -2 17 12 19 43 5
57 -3 4 -4 -4 -2 -16z"/>
<path d="M573 185 c0 -8 4 -12 9 -9 5 3 6 10 3 15 -9 13 -12 11 -12 -6z"/>
<path d="M456 173 c-6 -14 -5 -15 5 -6 7 7 10 15 7 18 -3 3 -9 -2 -12 -12z"/>
<path d="M473 125 c0 -8 4 -12 9 -9 5 3 6 10 3 15 -9 13 -12 11 -12 -6z"/>
</g>
</svg>
